<?xml version="1.0" encoding="UTF-8"?>
<svg id="Laag_1" data-name="Laag 1" xmlns="http://www.w3.org/2000/svg" viewBox="0 0 448.54 96.85">
  <defs>
    <style>
      .cls-1 {
        fill: #ef7800;
      }

      .cls-2 {
        fill: #20366b;
      }
    </style>
  </defs>
  <path class="cls-1" d="M88.42,17.76l-17.72,17.72c-.58,.58-1.51,.58-2.09,0l-8.37-8.37c-.58-.58-.58-1.51,0-2.09L77.96,7.29c2.89-2.89,7.57-2.89,10.46,0h0c2.89,2.89,2.89,7.57,0,10.46ZM0,43.92H0c0,4.09,3.31,7.4,7.4,7.4h24.75c.66,0,.99,.8,.52,1.26L1.05,84.2c-.58,.58-.58,1.51,0,2.09l8.37,8.37c.58,.58,1.51,.58,2.09,0l31.62-31.62c.47-.47,1.26-.14,1.26,.52v30.67c0,.82,.66,1.48,1.48,1.48h11.84c.82,0,1.48-.66,1.48-1.48V38c0-.82-.66-1.48-1.48-1.48H7.4c-4.09,0-7.4,3.31-7.4,7.4ZM44.23,0c-6.13,0-11.1,4.97-11.1,11.1s4.97,11.1,11.1,11.1,11.1-4.97,11.1-11.1S50.36,0,44.23,0Z"/>
  <path class="cls-2" d="M156.41,36.71v58.32c0,.37-.3,.68-.68,.68h-10.35c-.37,0-.68-.3-.68-.68v-9.1c-1.37,1.82-3.23,3.57-5.58,5.23-2.35,1.67-5.05,3.03-8.12,4.09-3.07,1.06-6.38,1.59-9.94,1.59-5.91,0-11.17-1.33-15.74-3.98-4.59-2.65-8.19-6.33-10.8-11.03-2.61-4.7-3.92-10.08-3.92-16.14s1.37-11.41,4.1-16.03c2.73-4.62,6.49-8.26,11.3-10.92,4.82-2.65,10.33-3.98,16.54-3.98,4.93,0,9.31,.95,13.14,2.84,3.82,1.89,6.84,4.09,9.04,6.59v-7.51c0-.37,.3-.68,.68-.68h10.35c.37,0,.68,.3,.68,.68Zm-32.62,49.34c4.16,0,7.85-.89,11.08-2.67,3.22-1.78,5.74-4.19,7.56-7.22,1.81-3.03,2.73-6.52,2.73-10.46s-.92-7.2-2.73-10.23c-1.82-3.03-4.34-5.43-7.56-7.22-3.23-1.78-6.92-2.67-11.08-2.67s-7.86,.89-11.09,2.67c-3.22,1.78-5.72,4.19-7.5,7.22-1.78,3.03-2.67,6.44-2.67,10.23s.89,7.43,2.67,10.46c1.79,3.03,4.28,5.44,7.5,7.22,3.23,1.78,6.92,2.67,11.09,2.67Z"/>
  <path class="cls-2" d="M173.71,65.82c0,3.94,.97,7.44,2.9,10.51,1.93,3.07,4.52,5.49,7.78,7.28,3.26,1.78,6.83,2.67,10.68,2.67,4.78,0,8.87-.94,12.28-2.84,3.14-1.75,5.81-3.57,7.99-5.44,.29-.25,.73-.21,.97,.1l5.67,7.35c.22,.28,.19,.68-.07,.92-2.97,2.71-6.76,5.11-11.37,7.2-4.86,2.2-10.28,3.3-16.26,3.3s-11.54-1.36-16.42-4.09c-4.89-2.73-8.73-6.44-11.54-11.14-2.81-4.7-4.21-9.97-4.21-15.8s1.4-11.2,4.21-15.86c2.8-4.66,6.64-8.35,11.54-11.08,4.88-2.73,10.36-4.09,16.42-4.09s11.69,1.08,16.66,3.24c4.77,2.08,8.47,4.8,11.11,8.17,.19,.24,.19,.58,0,.83l-5.69,7.58c-.25,.34-.74,.36-1.03,.05-1.49-1.58-3.26-3.03-5.31-4.35-2.31-1.48-4.77-2.67-7.38-3.58-2.62-.91-5.18-1.36-7.68-1.36-4.09,0-7.75,.89-10.97,2.67-3.22,1.79-5.74,4.21-7.56,7.28-1.81,3.07-2.73,6.58-2.73,10.52Z"/>
  <path class="cls-2" d="M382.45,48.52c-.1,.41-.54,.63-.92,.46-.99-.45-2.12-.85-3.42-1.18-1.64-.42-3.24-.62-4.84-.62-3.26,0-6.24,.78-8.97,2.33s-4.93,3.6-6.6,6.14c-1.67,2.54-2.5,5.36-2.5,8.47v30.92c0,.37-.3,.68-.68,.68h-10.47c-.37,0-.68-.3-.68-.68V36.71c0-.37,.3-.68,.68-.68h10.47c.37,0,.68,.3,.68,.68v11.26c2.12-3.79,5.05-6.93,8.81-9.44,3.76-2.5,7.63-3.75,11.66-3.75,1.89,0,3.73,.19,5.5,.57,1.53,.33,2.76,.74,3.71,1.23,.27,.14,.4,.46,.32,.75l-2.75,11.19Z"/>
  <path class="cls-2" d="M445.92,87.87h-.11c-1.9,1.52-4.26,2.97-7.1,4.38-2.84,1.41-5.97,2.52-9.38,3.35-3.4,.84-6.89,1.25-10.45,1.25-6.9,0-13-1.31-18.31-3.92-5.3-2.61-9.44-6.21-12.39-10.8-2.96-4.58-4.43-9.79-4.43-15.63,0-6.67,1.55-12.37,4.66-17.11,3.1-4.73,7.25-8.37,12.44-10.91,5.19-2.54,10.86-3.81,16.99-3.81,5.69,0,10.84,1.23,15.46,3.69,4.63,2.47,8.32,5.86,11.08,10.18,2.77,4.32,4.15,9.36,4.15,15.12l-.1,4.79c0,.37-.31,.66-.68,.66h-52.2c.91,5.23,3.6,9.36,8.07,12.39,4.47,3.03,10.08,4.55,16.83,4.55,4.92,0,8.95-.78,12.1-2.33,2.86-1.41,5.27-2.78,7.22-4.1,.31-.21,.73-.13,.94,.19l5.19,8.06Zm-28.08-42.4c-5.38,0-10.07,1.08-14.1,3.24-4.01,2.16-6.63,5.85-7.84,11.08h40.69v-1.25c-.31-2.58-1.37-4.85-3.18-6.82-1.82-1.97-4.12-3.51-6.88-4.6-2.77-1.1-5.66-1.65-8.7-1.65Z"/>
  <path class="cls-2" d="M332.28,36.04h-10.36c-.37,0-.68,.3-.68,.68v32.06c0,3.57-.81,6.63-2.44,9.21-1.63,2.58-3.83,4.57-6.6,5.97-2.77,1.41-5.81,2.1-9.15,2.1-5.75,0-9.91-1.8-12.44-5.4-2.54-3.6-3.81-8.32-3.81-14.15v-29.79c0-.37-.3-.68-.68-.68h-36.89v-15.92c0-.37-.31-.68-.68-.68h-10.35c-.37,0-.68,.3-.68,.68v15.92h-11.07c-.37,0-.68,.3-.68,.68v10.01c0,.37,.3,.68,.68,.68h11.07v22.73c0,8.34,2.15,14.87,6.43,19.61,4.27,4.74,9.87,7.1,16.76,7.1,1.92,0,3.74-.14,5.46-.41,.33-.05,.57-.34,.57-.67v-9.05c0-.39-.32-.7-.7-.67-2.2,.12-8.9,.05-12.99-5.38-2.65-3.52-3.81-8.32-3.81-14.15v-19.1h25.85v22.73c0,8.34,2.15,14.87,6.43,19.61,4.27,4.74,9.87,7.1,16.76,7.1,5.53,0,10.25-1.14,14.15-3.41,3.9-2.27,6.84-4.85,8.81-7.73v9.33c0,.37,.3,.68,.68,.68h10.36c.37,0,.68-.3,.68-.68V36.71c0-.37-.3-.68-.68-.68Z"/>
</svg>