<?xml version="1.0" encoding="UTF-8"?>
<svg width="177px" height="48px" viewBox="0 0 177 48" version="1.1" xmlns="http://www.w3.org/2000/svg" xmlns:xlink="http://www.w3.org/1999/xlink">
    <title>Group 24</title>
    <defs>
        <polygon id="path-1" points="0 0 41.5185185 0 41.5185185 48 0 48"></polygon>
    </defs>
    <g id="Homepage" stroke="none" stroke-width="1" fill="none" fill-rule="evenodd">
        <g id="Homepage-Zekerheyd-v5" transform="translate(-165.000000, -56.000000)">
            <g id="Group-24" transform="translate(165.000000, 56.000000)">
                <g id="Group-3">
                    <mask id="mask-2" fill="white">
                        <use xlink:href="#path-1"></use>
                    </mask>
                    <g id="Clip-2"></g>
                    <path d="M20.8016876,-9.31576363e-05 L4.93232122,9.14084464 C1.90010826,10.8872398 0.028456057,14.1216729 0.0222564803,17.6253316 L-7.74438627e-05,30.3012912 C-0.00626157245,33.8049499 1.85392141,37.0459041 4.87993479,38.8028571 L20.7170634,48 L36.5864298,38.8590622 C39.6183328,37.112667 41.489985,33.8785444 41.4961846,30.3748857 L41.5185185,17.6989262 C41.5247026,14.1949569 39.6645197,10.9543133 36.6388163,9.19704975 L20.8016876,-9.31576363e-05 Z" id="Fill-1" fill="#231EC7" mask="url(#mask-2)"></path>
                </g>
                <path d="M28.2203249,15.0787997 L28.2203249,13.1170834 L11.7705384,15.8918568 L11.7705384,15.8915423 C11.7705384,14.8520244 12.6348229,13.8634603 13.7009889,13.6835498 L30.1501305,10.9090909 L30.1501305,15.4200635 L19.8548241,28.8850431 L30.5925926,27.0739861 L30.5925926,28.9564412 L15.6717513,31.4733009 L28.2203249,15.0787997 Z M10.9259259,31.6459773 L21.3428126,18.0036034 L11.7705384,19.6180799 L11.7705384,17.7356248 L25.5252405,15.4156601 L12.856699,31.9872411 L12.856699,33.7913785 L30.5925926,30.7998947 L30.5925926,30.8002092 C30.5925926,31.8400416 29.7286305,32.8286057 28.6624645,33.0085162 L10.9259259,36 L10.9259259,31.6459773 Z" id="Fill-4" fill="#FFFFFF"></path>
                <polygon id="Fill-6" fill="#FE6701" points="55.806243 28.3723541 63.3703704 28.3723541 63.3703704 30.5454545 52.4444444 30.5454545 52.4444444 29.0145956 59.7145153 19.6276459 52.7475389 19.6276459 52.7475389 17.4545455 63.0992316 17.4545455 63.0992316 18.9550903"></polygon>
                <path d="M71.7454493,19.6654144 C70.4480365,19.6654144 69.3730644,20.0204265 68.521164,20.7304509 C67.6686326,21.4407813 67.1404543,22.3886026 66.9366293,23.5748329 L76.220766,23.5748329 C76.0166254,22.2986253 75.4979127,21.3281567 74.6639969,20.6628149 C73.8300811,19.9983913 72.857337,19.6654144 71.7454493,19.6654144 L71.7454493,19.6654144 Z M66.9366293,25.623804 C67.17737,26.8283971 67.7471967,27.7630584 68.6461094,28.4277881 C69.5450221,29.0931299 70.6518616,29.4254947 71.9678899,29.4254947 C73.8023154,29.4254947 75.1366439,28.7696403 75.9705597,27.4573195 L78.0274259,28.5896859 C76.6744818,30.6209064 74.6362313,31.6363636 71.9120431,31.6363636 C69.7068832,31.6363636 67.9141061,30.9667372 66.533712,29.6274844 C65.1530023,28.2888437 64.462963,26.5945787 64.462963,24.5456076 C64.462963,22.5143871 65.1391195,20.8247127 66.4920635,19.4765846 C67.844692,18.1287625 69.5955051,17.4545455 71.7454493,17.4545455 C73.7836998,17.4545455 75.4467987,18.1514099 76.7347459,19.5439145 C78.0226931,20.9373373 78.6666667,22.6135456 78.6666667,24.5722335 C78.6666667,24.9140857 78.638901,25.2645072 78.5833697,25.623804 L66.9366293,25.623804 Z" id="Fill-8" fill="#FE6701"></path>
                <polygon id="Fill-10" fill="#FE6701" points="93.962963 31.6363636 90.8942335 31.6363636 84.4165213 24.9952752 84.4165213 31.6363636 81.9444444 31.6363636 81.9444444 12 84.4165213 12 84.4165213 23.7852572 90.5533352 17.6103441 93.7355899 17.6103441 86.9450383 24.3988637"></polygon>
                <path d="M101.245449,19.6654144 C99.9480365,19.6654144 98.8730644,20.0204265 98.021164,20.7304509 C97.1686326,21.4407813 96.6404543,22.3886026 96.4366293,23.5748329 L105.720766,23.5748329 C105.516625,22.2986253 104.997913,21.3281567 104.163997,20.6628149 C103.330081,19.9983913 102.357337,19.6654144 101.245449,19.6654144 L101.245449,19.6654144 Z M96.4366293,25.623804 C96.67737,26.8283971 97.2471967,27.7630584 98.1461094,28.4277881 C99.0450221,29.0931299 100.151862,29.4254947 101.46789,29.4254947 C103.302315,29.4254947 104.636644,28.7696403 105.47056,27.4573195 L107.527426,28.5896859 C106.174482,30.6209064 104.136231,31.6363636 101.412359,31.6363636 C99.2068832,31.6363636 97.4141061,30.9667372 96.033712,29.6274844 C94.6530023,28.2888437 93.962963,26.5945787 93.962963,24.5456076 C93.962963,22.5143871 94.6391195,20.8247127 95.9920635,19.4765846 C97.344692,18.1287625 99.0955051,17.4545455 101.245449,17.4545455 C103.2837,17.4545455 104.946799,18.1514099 106.234746,19.5439145 C107.522693,20.9373373 108.166667,22.6135456 108.166667,24.5722335 C108.166667,24.9140857 108.138901,25.2645072 108.08337,25.623804 L96.4366293,25.623804 Z" id="Fill-12" fill="#FE6701"></path>
                <path d="M111.606238,20.0457374 C112.37948,18.3182761 113.782032,17.4545455 115.814815,17.4545455 L115.814815,19.990074 C114.66368,19.9344107 113.674238,20.2503634 112.847099,20.9372997 C112.019654,21.6248685 111.606238,22.7302286 111.606238,24.2530639 L111.606238,31.6363636 L109.259259,31.6363636 L109.259259,17.7053468 L111.606238,17.7053468 L111.606238,20.0457374 Z" id="Fill-14" fill="#FE6701"></path>
                <path d="M125.848043,17.2457466 C127.439282,17.2457466 128.714552,17.7644622 129.673237,18.8025303 C130.631615,19.8405984 131.111111,21.2480404 131.111111,23.0242195 L131.111111,31.6363636 L128.750892,31.6363636 L128.750892,23.1646453 C128.750892,22.0243625 128.452477,21.1407309 127.855647,20.5137505 C127.258817,19.887407 126.435635,19.574076 125.386717,19.574076 C124.210918,19.574076 123.261164,19.9526843 122.53807,20.7102193 C121.814359,21.4674358 121.452812,22.6316005 121.452812,24.202395 L121.452812,31.6363636 L119.092593,31.6363636 L119.092593,12 L121.452812,12 L121.452812,19.630119 C122.411189,18.0408558 123.876164,17.2457466 125.848043,17.2457466" id="Fill-16" fill="#FE6701"></path>
                <path d="M140.578783,19.6654144 C139.28137,19.6654144 138.206398,20.0204265 137.354497,20.7304509 C136.501966,21.4407813 135.973788,22.3886026 135.769963,23.5748329 L145.054099,23.5748329 C144.849959,22.2986253 144.331246,21.3281567 143.49733,20.6628149 C142.663414,19.9983913 141.69067,19.6654144 140.578783,19.6654144 L140.578783,19.6654144 Z M135.769963,25.623804 C136.010703,26.8283971 136.58053,27.7630584 137.479443,28.4277881 C138.378355,29.0931299 139.485195,29.4254947 140.801223,29.4254947 C142.635649,29.4254947 143.969977,28.7696403 144.803893,27.4573195 L146.860759,28.5896859 C145.507815,30.6209064 143.469565,31.6363636 140.745376,31.6363636 C138.540216,31.6363636 136.747439,30.9667372 135.367045,29.6274844 C133.986336,28.2888437 133.296296,26.5945787 133.296296,24.5456076 C133.296296,22.5143871 133.972453,20.8247127 135.325397,19.4765846 C136.678025,18.1287625 138.428838,17.4545455 140.578783,17.4545455 C142.617033,17.4545455 144.280132,18.1514099 145.568079,19.5439145 C146.856026,20.9373373 147.5,22.6135456 147.5,24.5722335 C147.5,24.9140857 147.472234,25.2645072 147.416703,25.623804 L135.769963,25.623804 Z" id="Fill-18" fill="#FE6701"></path>
                <path d="M159.265016,17.4545455 L161.703704,17.4545455 L156.353949,32.3394373 C155.794357,33.9275537 155.01212,35.1379714 154.006939,35.9694176 C153.002055,36.8005456 151.844177,37.1702894 150.533006,37.0767398 L150.533006,34.8064111 C152.134688,34.9368715 153.30983,33.9819652 154.058731,31.9407377 L154.309058,31.4144415 L148.592593,17.4545455 L151.031281,17.4545455 L155.402941,28.199707 L159.265016,17.4545455 Z" id="Fill-20" fill="#FE6701"></path>
                <path d="M169.884585,29.3230035 C171.244822,29.3230035 172.381655,28.8503277 173.294474,27.9046636 C174.207598,26.9593121 174.663854,25.7888769 174.663854,24.3933581 C174.663854,22.9981518 174.207598,21.8277166 173.294474,20.8817399 C172.381655,19.9363884 171.244822,19.4637126 169.884585,19.4637126 C168.542026,19.4637126 167.414336,19.9363884 166.501518,20.8817399 C165.588699,21.8277166 165.132137,22.9981518 165.132137,24.3933581 C165.132137,25.7888769 165.588699,26.9593121 166.501518,27.9046636 C167.414336,28.8503277 168.542026,29.3230035 169.884585,29.3230035 L169.884585,29.3230035 Z M174.663854,12 L177,12 L177,31.278418 L174.663854,31.278418 L174.663854,28.9097248 C173.500201,30.7275882 171.808362,31.6363636 169.589253,31.6363636 C167.709669,31.6363636 166.107741,30.9342276 164.783163,29.5293302 C163.45828,28.1250581 162.796296,26.4131716 162.796296,24.3933581 C162.796296,22.3738572 163.45828,20.6613454 164.783163,19.2570733 C166.107741,17.8524886 167.709669,17.1503525 169.589253,17.1503525 C171.808362,17.1503525 173.500201,18.0588153 174.663854,19.8766787 L174.663854,12 Z" id="Fill-22" fill="#FE6701"></path>
            </g>
        </g>
    </g>
</svg>